# xmcd CD database file
#
# Track frame offsets:
#	150
#	17241
#	33204
#	44494
#	62058
#	72562
#	85049
#	106339
#	123488
#	136330
#	151949
#	165541
#	181178
#	193272
#
# Disc length: 2744 seconds
#
# Revision: 0
# Processed by: cddbd v1.5.2PL0 Copyright (c) Steve Scherf et al.
# Submitted via: CDex 1.70beta2
#
DISCID=bc0ab60e
DTITLE=Konstantinos - a wave of melodies
DYEAR=1900
DGENRE=New Age
TTITLE0=Angels symphony
TTITLE1=Crying dream
TTITLE2=Star voices
TTITLE3=Innocent fears
TTITLE4=Ripple
TTITLE5=Pure, blue and transparent
TTITLE6=Impassioned horizons
TTITLE7=Pure sensations
TTITLE8=The way out
TTITLE9=Tearfull gaze
TTITLE10=Nostos
TTITLE11=Whispers of loneliness
TTITLE12=Tears libation
TTITLE13=The hours of deep silence
EXTD=
EXTT0=
EXTT1=
EXTT2=
EXTT3=
EXTT4=
EXTT5=
EXTT6=
EXTT7=
EXTT8=
EXTT9=
EXTT10=
EXTT11=
EXTT12=
EXTT13=
PLAYORDER=
